<svg width="291" height="48" viewBox="0 0 291 48" fill="none" xmlns="http://www.w3.org/2000/svg">
<path d="M19.5654 4.63224L31.296 34.9282C31.7807 36.0593 32.2816 36.851 32.7987 37.3034C33.348 37.7558 33.8328 37.9982 34.2529 38.0305V39C33.2188 38.9354 31.9746 38.9031 30.5204 38.9031C29.0985 38.8707 27.6443 38.8546 26.1578 38.8546C24.6066 38.8546 23.1363 38.8707 21.7467 38.9031C20.3571 38.9031 19.2422 38.9354 18.402 39V38.0305C20.0501 37.9659 21.1004 37.6912 21.5528 37.2065C22.0052 36.6894 21.9083 35.6069 21.262 33.9587L13.2153 11.9517L14.1848 10.4975L7.10767 28.7721C6.36441 30.711 5.91199 32.2783 5.75041 33.474C5.58883 34.6697 5.66962 35.5907 5.99278 36.237C6.31593 36.8833 6.81683 37.3357 7.49546 37.5943C8.2064 37.8528 9.04661 37.9982 10.0161 38.0305V39C8.88503 38.9354 7.83477 38.9031 6.8653 38.9031C5.92815 38.8707 4.9102 38.8546 3.81147 38.8546C3.16515 38.8546 2.50268 38.8707 1.82405 38.9031C1.17774 38.9031 0.612211 38.9354 0.127476 39V38.0305C0.838421 37.9013 1.54937 37.4488 2.26031 36.6733C3.00357 35.8977 3.73068 34.5566 4.44162 32.65L15.3482 4.63224C15.9945 4.69687 16.6893 4.72919 17.4325 4.72919C18.2081 4.72919 18.9191 4.69687 19.5654 4.63224ZM22.086 25.0396V26.0091H7.64088L8.12561 25.0396H22.086ZM46.8151 13.2121C48.1724 13.2121 49.3842 13.3575 50.4506 13.6483C51.517 13.9069 52.3896 14.2462 53.0682 14.6663C53.9084 15.1833 54.587 15.8458 55.1041 16.6537C55.6211 17.4616 55.8796 18.3987 55.8796 19.4652C55.8796 20.6931 55.4757 21.7273 54.6678 22.5675C53.8599 23.3754 52.842 23.7793 51.614 23.7793C50.3537 23.7793 49.3519 23.4077 48.6086 22.6644C47.8977 21.9211 47.5422 20.9678 47.5422 19.8045C47.5422 18.6734 47.8977 17.7201 48.6086 16.9445C49.3196 16.169 50.1598 15.6519 51.1292 15.3934C50.8707 15.1348 50.5314 14.9248 50.1113 14.7632C49.7235 14.6016 49.2549 14.5209 48.7056 14.5209C47.6068 14.5209 46.6858 14.844 45.9426 15.4903C45.1993 16.1043 44.5853 16.9607 44.1006 18.0594C43.6482 19.1258 43.3088 20.3377 43.0826 21.6949C42.8887 23.0199 42.7918 24.3933 42.7918 25.8152C42.7918 28.2066 43.0988 30.0809 43.7128 31.4381C44.3591 32.7631 45.1508 33.7002 46.088 34.2496C47.0575 34.7666 48.0431 35.0252 49.0449 35.0252C49.5619 35.0252 50.1598 34.9444 50.8384 34.7828C51.517 34.6212 52.228 34.2819 52.9712 33.7649C53.7468 33.2478 54.4739 32.4722 55.1525 31.4381L55.9766 31.729C55.6211 32.9893 55.0233 34.2334 54.1831 35.4614C53.3429 36.6894 52.2603 37.7074 50.9353 38.5153C49.6104 39.2908 47.9946 39.6786 46.088 39.6786C43.9552 39.6786 42.0162 39.2424 40.2712 38.3698C38.5584 37.4973 37.185 36.0916 36.1509 34.1526C35.1168 32.2137 34.5998 29.6769 34.5998 26.5423C34.5998 23.5046 35.133 21.0163 36.1994 19.0774C37.2658 17.1061 38.72 15.6357 40.562 14.6663C42.4363 13.6968 44.5207 13.2121 46.8151 13.2121ZM84.7699 13.9392C84.6406 15.3611 84.5437 16.7345 84.4791 18.0594C84.4467 19.3844 84.4306 20.4023 84.4306 21.1133C84.4306 21.7596 84.4467 22.3897 84.4791 23.0037C84.5114 23.5854 84.5437 24.0863 84.576 24.5064H83.4611C83.0087 22.1474 82.4108 20.273 81.6676 18.8835C80.9566 17.4616 80.1972 16.4598 79.3893 15.8781C78.5814 15.2641 77.7897 14.9571 77.0141 14.9571H75.5114V34.0072C75.5114 35.5907 75.8992 36.6571 76.6748 37.2065C77.4827 37.7235 78.5491 37.9821 79.8741 37.9821V39C79.0339 38.9677 77.8705 38.9354 76.384 38.9031C74.8974 38.8384 73.314 38.8061 71.6336 38.8061C69.9531 38.8061 68.3535 38.8384 66.8347 38.9031C65.3482 38.9354 64.1686 38.9677 63.2961 39V37.9821C64.6857 37.9821 65.7521 37.7882 66.4954 37.4004C67.2709 36.9803 67.6587 35.9785 67.6587 34.395V14.9571H66.0591C65.3158 14.9571 64.5403 15.2641 63.7324 15.8781C62.9245 16.4921 62.1651 17.4939 61.4541 18.8835C60.7755 20.273 60.1938 22.1474 59.7091 24.5064H58.5942C58.6588 24.1186 58.6911 23.6177 58.6911 23.0037C58.7234 22.3897 58.7396 21.7596 58.7396 21.1133C58.7396 20.4023 58.7073 19.4005 58.6426 18.1079C58.6103 16.7829 58.5295 15.3934 58.4003 13.9392H63.7324C64.5726 13.9392 65.7036 13.9715 67.1255 14.0361C68.5797 14.1007 70.0501 14.1331 71.5366 14.1331C73.0878 14.1331 74.5904 14.1007 76.0447 14.0361C77.4989 13.9715 78.6461 13.9392 79.4863 13.9392H84.7699ZM97.6055 13.406V42.8779C97.6055 44.429 97.9772 45.4631 98.7204 45.9802C99.496 46.4972 100.546 46.7558 101.871 46.7558V47.7737C100.999 47.7414 99.7869 47.6929 98.2357 47.6283C96.6845 47.596 95.0526 47.5798 93.3399 47.5798C92.1119 47.5798 90.8839 47.596 89.6559 47.6283C88.4602 47.6929 87.5554 47.7414 86.9414 47.7737V46.7558C87.9755 46.7558 88.7026 46.5134 89.1227 46.0287C89.5428 45.5762 89.7528 44.6876 89.7528 43.3626V19.2228C89.7528 17.7686 89.5428 16.7022 89.1227 16.0235C88.7026 15.3126 87.9431 14.9571 86.8444 14.9571V13.9392C87.8785 14.0361 88.8803 14.0846 89.8498 14.0846C91.3363 14.0846 92.7259 14.0361 94.0185 13.9392C95.3111 13.8099 96.5068 13.6322 97.6055 13.406ZM105.022 13.2121C106.67 13.2121 108.124 13.6645 109.385 14.5693C110.677 15.4418 111.695 16.7829 112.438 18.5926C113.214 20.37 113.602 22.6159 113.602 25.3305C113.602 27.8834 113.311 30.0647 112.729 31.8744C112.18 33.6841 111.388 35.1706 110.354 36.334C109.352 37.4973 108.157 38.3537 106.767 38.9031C105.41 39.4201 103.939 39.6786 102.356 39.6786C101.16 39.6786 100.045 39.5009 99.0113 39.1454C98.0095 38.8223 97.2178 38.2891 96.6361 37.5458L97.1208 36.9156C97.4117 37.3681 97.8156 37.7074 98.3326 37.9336C98.8497 38.1598 99.3991 38.2729 99.9808 38.2729C101.306 38.2729 102.356 37.8205 103.132 36.9156C103.939 35.9785 104.521 34.6212 104.877 32.8439C105.232 31.0665 105.41 28.9013 105.41 26.3484C105.41 23.5369 105.248 21.3556 104.925 19.8045C104.602 18.221 104.166 17.1061 103.616 16.4598C103.067 15.8135 102.421 15.4903 101.677 15.4903C100.643 15.4903 99.7061 15.8943 98.8659 16.7022C98.058 17.4777 97.6055 18.5442 97.5086 19.9014L97.4117 17.8655C98.0903 16.3144 99.0921 15.151 100.417 14.3754C101.742 13.5999 103.277 13.2121 105.022 13.2121ZM123.027 39.3393C121.541 39.3393 120.313 39.0646 119.343 38.5153C118.374 37.9336 117.663 37.1742 117.21 36.237C116.758 35.2999 116.532 34.2981 116.532 33.2316C116.532 31.8744 116.839 30.7595 117.453 29.887C118.099 29.0144 118.923 28.3197 119.925 27.8026C120.927 27.2532 121.977 26.8008 123.076 26.4453C124.174 26.0899 125.225 25.7506 126.227 25.4274C127.228 25.0719 128.036 24.668 128.65 24.2156C129.264 23.7308 129.571 23.1168 129.571 22.3736V18.3503C129.571 17.6393 129.458 16.9768 129.232 16.3628C129.038 15.7165 128.666 15.1995 128.117 14.8117C127.6 14.3916 126.873 14.1815 125.936 14.1815C125.354 14.1815 124.788 14.2623 124.239 14.4239C123.69 14.5855 123.205 14.844 122.785 15.1995C123.819 15.555 124.578 16.0882 125.063 16.7991C125.58 17.5101 125.839 18.3018 125.839 19.1743C125.839 20.37 125.419 21.3233 124.578 22.0343C123.771 22.7129 122.801 23.0522 121.67 23.0522C120.442 23.0522 119.489 22.6644 118.81 21.8888C118.164 21.1133 117.841 20.1761 117.841 19.0774C117.841 18.1079 118.083 17.3 118.568 16.6537C119.052 15.9751 119.763 15.3611 120.701 14.8117C121.638 14.2623 122.769 13.8584 124.094 13.5999C125.419 13.3413 126.824 13.2121 128.311 13.2121C129.83 13.2121 131.219 13.3736 132.48 13.6968C133.772 13.9876 134.871 14.5855 135.776 15.4903C136.487 16.2336 136.939 17.1384 137.133 18.2048C137.327 19.2713 137.424 20.6285 137.424 22.2766V35.3645C137.424 36.1724 137.489 36.7379 137.618 37.0611C137.779 37.3519 138.022 37.4973 138.345 37.4973C138.636 37.4973 138.91 37.4165 139.169 37.255C139.427 37.0934 139.686 36.9156 139.945 36.7217L140.478 37.5458C139.767 38.1275 138.927 38.5799 137.957 38.9031C136.988 39.1939 135.937 39.3393 134.806 39.3393C133.514 39.3393 132.496 39.1777 131.753 38.8546C131.042 38.4991 130.525 38.0305 130.201 37.4488C129.911 36.8672 129.749 36.2208 129.717 35.5099C129.006 36.6733 128.117 37.6104 127.051 38.3214C125.984 39 124.643 39.3393 123.027 39.3393ZM127.051 35.8492C127.568 35.8492 128.02 35.7523 128.408 35.5584C128.828 35.3322 129.216 34.9605 129.571 34.4435V24.361C129.313 24.8134 128.957 25.2497 128.505 25.6698C128.085 26.0576 127.632 26.4615 127.148 26.8816C126.663 27.2694 126.194 27.7057 125.742 28.1904C125.322 28.6751 124.966 29.2568 124.675 29.9354C124.417 30.5818 124.288 31.3735 124.288 32.3106C124.288 33.571 124.546 34.4758 125.063 35.0252C125.58 35.5745 126.243 35.8492 127.051 35.8492Z" fill="#333333"/>
<path d="M160.18 4.344C162.292 4.344 164.02 4.664 165.364 5.304C166.74 5.912 167.956 6.632 169.012 7.464C169.652 7.944 170.132 8.008 170.452 7.656C170.804 7.272 171.044 6.392 171.172 5.016H172.276C172.212 6.264 172.164 7.8 172.132 9.624C172.1 11.448 172.084 13.848 172.084 16.824H170.98C170.852 15.32 170.644 14.008 170.356 12.888C170.1 11.768 169.716 10.776 169.204 9.912C168.692 9.048 167.956 8.28 166.996 7.608C166.26 7 165.428 6.536 164.5 6.216C163.604 5.864 162.676 5.688 161.716 5.688C159.956 5.688 158.468 6.184 157.252 7.176C156.068 8.136 155.108 9.416 154.372 11.016C153.668 12.584 153.156 14.344 152.836 16.296C152.548 18.216 152.404 20.152 152.404 22.104C152.404 24.088 152.564 26.056 152.884 28.008C153.204 29.928 153.716 31.672 154.42 33.24C155.156 34.808 156.132 36.072 157.348 37.032C158.564 37.96 160.052 38.424 161.812 38.424C162.74 38.424 163.652 38.264 164.548 37.944C165.476 37.624 166.308 37.16 167.044 36.552C168.452 35.592 169.396 34.344 169.876 32.808C170.388 31.24 170.756 29.208 170.98 26.712H172.084C172.084 29.816 172.1 32.328 172.132 34.248C172.164 36.136 172.212 37.72 172.276 39H171.172C171.044 37.624 170.82 36.76 170.5 36.408C170.212 36.056 169.716 36.104 169.012 36.552C167.828 37.384 166.564 38.12 165.22 38.76C163.908 39.368 162.212 39.672 160.132 39.672C156.644 39.672 153.572 38.984 150.916 37.608C148.292 36.232 146.244 34.248 144.772 31.656C143.332 29.064 142.612 25.944 142.612 22.296C142.612 18.712 143.364 15.576 144.868 12.888C146.372 10.2 148.436 8.104 151.06 6.6C153.716 5.096 156.756 4.344 160.18 4.344ZM202.129 14.184C202.001 15.592 201.905 16.952 201.841 18.264C201.809 19.576 201.793 20.584 201.793 21.288C201.793 21.928 201.809 22.552 201.841 23.16C201.873 23.736 201.905 24.232 201.937 24.648H200.833C200.385 22.312 199.793 20.456 199.057 19.08C198.353 17.672 197.601 16.68 196.801 16.104C196.001 15.496 195.217 15.192 194.449 15.192H192.961V34.056C192.961 35.624 193.345 36.68 194.113 37.224C194.913 37.736 195.969 37.992 197.281 37.992V39C196.449 38.968 195.297 38.936 193.825 38.904C192.353 38.84 190.785 38.808 189.121 38.808C187.457 38.808 185.873 38.84 184.369 38.904C182.897 38.936 181.729 38.968 180.865 39V37.992C182.241 37.992 183.297 37.8 184.033 37.416C184.801 37 185.185 36.008 185.185 34.44V15.192H183.601C182.865 15.192 182.097 15.496 181.297 16.104C180.497 16.712 179.745 17.704 179.041 19.08C178.369 20.456 177.793 22.312 177.313 24.648H176.209C176.273 24.264 176.305 23.768 176.305 23.16C176.337 22.552 176.353 21.928 176.353 21.288C176.353 20.584 176.321 19.592 176.257 18.312C176.225 17 176.145 15.624 176.017 14.184H181.297C182.129 14.184 183.249 14.216 184.657 14.28C186.097 14.344 187.553 14.376 189.025 14.376C190.561 14.376 192.049 14.344 193.489 14.28C194.929 14.216 196.065 14.184 196.897 14.184H202.129ZM214.839 13.656V42.84C214.839 44.376 215.207 45.4 215.943 45.912C216.711 46.424 217.751 46.68 219.063 46.68V47.688C218.199 47.656 216.999 47.608 215.463 47.544C213.927 47.512 212.311 47.496 210.615 47.496C209.399 47.496 208.183 47.512 206.967 47.544C205.783 47.608 204.887 47.656 204.279 47.688V46.68C205.303 46.68 206.023 46.44 206.439 45.96C206.855 45.512 207.063 44.632 207.063 43.32V19.416C207.063 17.976 206.855 16.92 206.439 16.248C206.023 15.544 205.271 15.192 204.183 15.192V14.184C205.207 14.28 206.199 14.328 207.159 14.328C208.631 14.328 210.007 14.28 211.287 14.184C212.567 14.056 213.751 13.88 214.839 13.656ZM222.183 13.464C223.815 13.464 225.255 13.912 226.503 14.808C227.783 15.672 228.791 17 229.527 18.792C230.295 20.552 230.679 22.776 230.679 25.464C230.679 27.992 230.391 30.152 229.815 31.944C229.271 33.736 228.487 35.208 227.463 36.36C226.471 37.512 225.287 38.36 223.911 38.904C222.567 39.416 221.111 39.672 219.543 39.672C218.359 39.672 217.255 39.496 216.231 39.144C215.239 38.824 214.455 38.296 213.879 37.56L214.359 36.936C214.647 37.384 215.047 37.72 215.559 37.944C216.071 38.168 216.615 38.28 217.191 38.28C218.503 38.28 219.543 37.832 220.311 36.936C221.111 36.008 221.687 34.664 222.039 32.904C222.391 31.144 222.567 29 222.567 26.472C222.567 23.688 222.407 21.528 222.087 19.992C221.767 18.424 221.335 17.32 220.791 16.68C220.247 16.04 219.607 15.72 218.871 15.72C217.847 15.72 216.919 16.12 216.087 16.92C215.287 17.688 214.839 18.744 214.743 20.088L214.647 18.072C215.319 16.536 216.311 15.384 217.623 14.616C218.935 13.848 220.455 13.464 222.183 13.464ZM246.061 13.464C248.461 13.464 250.557 13.896 252.349 14.76C254.173 15.592 255.581 16.968 256.573 18.888C257.597 20.808 258.109 23.368 258.109 26.568C258.109 29.768 257.597 32.328 256.573 34.248C255.581 36.168 254.173 37.56 252.349 38.424C250.557 39.256 248.461 39.672 246.061 39.672C243.693 39.672 241.597 39.256 239.773 38.424C237.981 37.56 236.573 36.168 235.549 34.248C234.525 32.328 234.013 29.768 234.013 26.568C234.013 23.368 234.525 20.808 235.549 18.888C236.573 16.968 237.981 15.592 239.773 14.76C241.597 13.896 243.693 13.464 246.061 13.464ZM246.061 14.424C244.941 14.424 243.997 15.384 243.229 17.304C242.493 19.192 242.125 22.28 242.125 26.568C242.125 30.856 242.493 33.96 243.229 35.88C243.997 37.768 244.941 38.712 246.061 38.712C247.213 38.712 248.157 37.768 248.893 35.88C249.629 33.96 249.997 30.856 249.997 26.568C249.997 22.28 249.629 19.192 248.893 17.304C248.157 15.384 247.213 14.424 246.061 14.424ZM290.62 14.184V15.192C289.564 15.192 288.812 15.432 288.364 15.912C287.948 16.392 287.74 17.304 287.74 18.648V34.536C287.74 35.88 287.948 36.792 288.364 37.272C288.812 37.752 289.564 37.992 290.62 37.992V39C289.98 38.968 289.02 38.936 287.74 38.904C286.492 38.84 285.276 38.808 284.092 38.808C282.812 38.808 281.548 38.84 280.3 38.904C279.084 38.936 278.172 38.968 277.564 39V37.992C278.46 37.992 279.084 37.752 279.436 37.272C279.788 36.792 279.964 35.88 279.964 34.536V18.648C279.964 17.304 279.788 16.392 279.436 15.912C279.084 15.432 278.46 15.192 277.564 15.192V14.184C278.14 14.216 279.004 14.264 280.156 14.328C281.308 14.36 282.492 14.376 283.708 14.376C284.988 14.376 286.284 14.36 287.596 14.328C288.94 14.264 289.948 14.216 290.62 14.184ZM273.916 14.184V15.192C273.02 15.192 272.396 15.432 272.044 15.912C271.692 16.392 271.516 17.304 271.516 18.648V34.536C271.516 35.88 271.692 36.792 272.044 37.272C272.396 37.752 273.02 37.992 273.916 37.992V39C273.308 38.968 272.428 38.936 271.276 38.904C270.124 38.84 268.956 38.808 267.772 38.808C266.46 38.808 265.148 38.84 263.836 38.904C262.524 38.936 261.532 38.968 260.86 39V37.992C261.916 37.992 262.652 37.752 263.068 37.272C263.516 36.792 263.74 35.88 263.74 34.536V18.648C263.74 17.304 263.516 16.392 263.068 15.912C262.652 15.432 261.916 15.192 260.86 15.192V14.184C261.468 14.216 262.396 14.264 263.644 14.328C264.924 14.36 266.172 14.376 267.388 14.376C268.668 14.376 269.916 14.36 271.132 14.328C272.348 14.264 273.276 14.216 273.916 14.184ZM280.54 17.016L281.356 17.448L270.556 37.128L269.74 36.696L280.54 17.016ZM282.364 0.935998C283.484 0.935998 284.396 1.304 285.1 2.04C285.836 2.744 286.204 3.656 286.204 4.776C286.204 5.64 285.932 6.408 285.388 7.08C284.876 7.752 284.252 8.296 283.516 8.712C282.652 9.192 281.564 9.592 280.252 9.912C278.94 10.2 277.436 10.344 275.74 10.344C274.012 10.344 272.492 10.2 271.18 9.912C269.868 9.592 268.764 9.192 267.868 8.712C267.164 8.296 266.556 7.752 266.044 7.08C265.532 6.408 265.276 5.64 265.276 4.776C265.276 3.656 265.628 2.744 266.332 2.04C267.036 1.304 267.964 0.935998 269.116 0.935998C270.204 0.935998 271.116 1.304 271.852 2.04C272.62 2.744 273.004 3.656 273.004 4.776C273.004 5.704 272.732 6.488 272.188 7.128C271.644 7.736 270.956 8.184 270.124 8.472C270.988 8.792 271.932 9.032 272.956 9.192C273.98 9.32 274.908 9.384 275.74 9.384C276.54 9.384 277.452 9.32 278.476 9.192C279.5 9.032 280.428 8.776 281.26 8.424C280.428 8.136 279.756 7.688 279.244 7.08C278.732 6.44 278.476 5.672 278.476 4.776C278.476 3.656 278.844 2.744 279.58 2.04C280.316 1.304 281.244 0.935998 282.364 0.935998Z" fill="#E5261F"/>
</svg>
